# xmcd
#
# Track frame offsets:
#	150
#	18213
#	34123
#	58389
#	81884
#	98239
#	113599
#	130064
#	145896
#	161549
#
# Disc length: 2367 seconds
#
# Revision: 0
# Processed by: cddbd v1.5.2PL0 Copyright (c) Steve Scherf et al.
# Submitted via: dBpowerAMP V4.0
#
DISCID=7d093d0a
DTITLE=Corey Stevens - Mean and Lean
DYEAR=2003
DGENRE=Blues
TTITLE0=Mean and Lean
TTITLE1=The Price Is Right
TTITLE2=Getaway
TTITLE3=This Train
TTITLE4=Money
TTITLE5=Stray Summer
TTITLE6=I Propose
TTITLE7=Mindless Rock
TTITLE8=You Can't Blame Me
TTITLE9=Baby It Hurts
EXTD=
EXTT0=
EXTT1=
EXTT2=
EXTT3=
EXTT4=
EXTT5=
EXTT6=
EXTT7=
EXTT8=
EXTT9=
PLAYORDER=
